<svg width="234" height="170" viewBox="0 0 234 170" fill="none" xmlns="http://www.w3.org/2000/svg">
<path d="M223.116 106.04C223.116 121.215 220.156 134.11 214.631 143.316C208.05 154.228 197.858 160 185.031 160C159.822 160 140.8 124.481 120.653 86.8796C102.528 52.9784 83.742 17.9228 63.279 17.9228C52.3272 17.9228 40.8821 28.3122 31.8641 46.427C22.876 65.0275 18.1055 85.3831 17.8932 106.04C17.8932 119.784 20.4387 131.259 25.2437 139.241C30.394 147.775 38.0701 152.067 48.0451 152.067C64.9661 152.067 80.6736 128.072 95.1378 102.143C95.3905 101.69 95.73 101.29 96.1369 100.968C96.5439 100.646 97.0104 100.407 97.5097 100.265C98.009 100.123 98.5314 100.08 99.0471 100.14C99.5627 100.2 100.062 100.361 100.515 100.614C100.969 100.866 101.368 101.206 101.69 101.613C102.012 102.02 102.251 102.486 102.393 102.986C102.535 103.485 102.578 104.007 102.518 104.523C102.458 105.039 102.297 105.537 102.044 105.991C87.4716 132.137 70.0868 160 48.0451 160C35.2878 160 25.0661 154.228 18.4457 143.316C12.9599 134.11 10 121.215 10 106.04C10.2276 84.1593 15.281 62.5982 24.7997 42.8948C35.347 21.7016 49.012 10.0296 63.279 10.0296C88.4779 10.0296 107.51 45.5489 127.658 83.15C145.822 117.051 164.598 152.107 185.081 152.107C195.065 152.107 202.732 147.775 207.882 139.28C212.687 131.298 215.233 119.824 215.233 106.08C215.02 85.4225 210.25 65.067 201.262 46.4665C192.234 28.3122 180.789 17.9228 169.837 17.9228C160.217 17.9228 149.956 25.816 138.481 42.1647C137.865 42.9829 136.954 43.5293 135.943 43.6885C134.931 43.8477 133.896 43.6073 133.059 43.0179C132.221 42.4286 131.645 41.5366 131.453 40.5305C131.26 39.5243 131.467 38.4828 132.029 37.6261C145.269 18.8009 157.287 10 169.837 10C184.094 10 197.759 21.672 208.316 42.8751C217.838 62.5844 222.891 84.1526 223.116 106.04Z" fill="#DDDDDD"/>
</svg>
